<svg width="40" height="41" viewBox="0 0 40 41" fill="none" xmlns="http://www.w3.org/2000/svg">
<path fill-rule="evenodd" clip-rule="evenodd" d="M20 38.9688C29.9411 38.9688 38 30.9099 38 20.9688C38 11.0276 29.9411 2.96875 20 2.96875C10.0589 2.96875 2 11.0276 2 20.9688C2 30.9099 10.0589 38.9688 20 38.9688ZM20 40.9688C31.0457 40.9688 40 32.0144 40 20.9688C40 9.92305 31.0457 0.96875 20 0.96875C8.9543 0.96875 0 9.92305 0 20.9688C0 32.0144 8.9543 40.9688 20 40.9688Z" fill="black"/>
<path d="M11.9178 15.1284H9.53603C9.50747 15.8414 8.5022 17.0562 7 17.0562V19.0182C8.29086 19.0182 9.13049 18.5391 9.38181 18.1513H9.49033V26.8091H11.9178V15.1284Z" fill="black"/>
<path d="M19.0647 26.9688C21.6921 26.9688 23.5941 25.56 23.6056 23.6665C23.5941 22.2064 22.4746 21.0144 21.0695 20.7805V20.7007C22.2918 20.4497 23.16 19.3889 23.1715 18.1113C23.16 16.3034 21.4237 14.9688 19.0647 14.9688C16.6886 14.9688 14.9522 16.3034 14.9636 18.1113C14.9522 19.3889 15.8204 20.4497 17.0656 20.7007V20.7805C15.6376 21.0144 14.5181 22.2064 14.5295 23.6665C14.5181 25.56 16.4144 26.9688 19.0647 26.9688ZM19.0647 25.1551C17.8824 25.1551 17.0884 24.4649 17.0998 23.4726C17.0884 22.463 17.9223 21.733 19.0647 21.733C20.1899 21.733 21.0181 22.463 21.0295 23.4726C21.0181 24.4649 20.2299 25.1551 19.0647 25.1551ZM19.0647 19.9364C18.0708 19.9364 17.3626 19.2919 17.374 18.368C17.3626 17.4611 18.0594 16.8281 19.0647 16.8281C20.0528 16.8281 20.744 17.4611 20.7554 18.368C20.744 19.2919 20.0414 19.9364 19.0647 19.9364Z" fill="black"/>
<path d="M33 20.0277H30.1898V17.3186H28.2764V20.0277H25.4662V21.9098H28.2764V24.6189H30.1898V21.9098H33V20.0277Z" fill="black"/>
</svg>
