<svg width="44" height="4" viewBox="0 0 44 4" fill="none" xmlns="http://www.w3.org/2000/svg">
<mask id="mask0_42407_12032" style="mask-type:luminance" maskUnits="userSpaceOnUse" x="0" y="0" width="44" height="4">
<path d="M0 0H44V4H0V0Z" fill="white"/>
</mask>
<g mask="url(#mask0_42407_12032)">
<path d="M-70.2602 3.11146C-62.3469 3.04619 -54.4334 3.01569 -46.5201 2.98218L-22.78 2.87875L0 3L4.48531 0.509978L5.31875 0.0322566L6.16097 0.509978L9.48951 2.39789L12.8068 0.503703L13.6586 0.0173215L14.5162 0.503703L17.8277 2.38208L21.1283 0.497551L21.9996 0L22.8712 0.497551L26.1714 2.38132L29.4824 0.50345L30.3408 0.0165669L31.1935 0.50345L34.5099 2.39714L37.8376 0.509729L38.6807 0.0316284L43 3L66.7795 2.87674L90.5195 2.9808C98.4328 3.01494 106.346 3.04443 114.26 3.11021C122.173 3.16832 130.086 3.21627 138 3.30087C130.087 3.38547 122.173 3.43354 114.26 3.49165C106.346 3.55755 98.4328 3.58692 90.5195 3.62106L66.7795 3.72512L42.9999 3.99887L42.5 4L42.1796 3.819L38.6807 1.60274L35.3543 3.50207L34.5099 3.98419L33.66 3.50207L30.3408 1.61943L27.0326 3.50822L26.1714 4L25.3048 3.50822L21.9996 1.63274L18.6935 3.50785L17.8275 3.999L16.9674 3.50785L13.6586 1.61855L10.3386 3.50169L9.48951 3.98318L8.64619 3.50169L5.31875 1.60173L1.31934 3.8195L1 4L0.501534 3.99874L-22.7797 3.72286L-46.5198 3.61943C-54.4331 3.58592 -62.3466 3.55554 -70.2599 3.49015C-78.1735 3.43254 -86.0867 3.38459 -94 3.30049C-86.087 3.21702 -78.1737 3.16895 -70.2602 3.11146Z" fill="url(#paint0_linear_42407_12032)"/>
</g>
<defs>
<linearGradient id="paint0_linear_42407_12032" x1="-94" y1="2" x2="138" y2="2" gradientUnits="userSpaceOnUse">
<stop offset="0.41858" stop-color="#ABBDD3"/>
<stop offset="0.464469" stop-color="#68AAFF"/>
<stop offset="0.502497" stop-color="#FF922E"/>
<stop offset="0.536776" stop-color="#ECE765"/>
<stop offset="0.588247" stop-color="#ABBDD3"/>
</linearGradient>
</defs>
</svg>
