<svg width="210" height="35" viewBox="0 0 210 35" fill="none" xmlns="http://www.w3.org/2000/svg">
<g clip-path="url(#clip0_42078_1166723)">
<mask id="mask0_42078_1166723" style="mask-type:luminance" maskUnits="userSpaceOnUse" x="0" y="-44" width="210" height="90">
<path d="M209.515 -43.627H0V45.275H209.515V-43.627Z" fill="white"/>
</mask>
<g mask="url(#mask0_42078_1166723)">
<path d="M202.541 13.8903V12.2332C202.541 12.0517 202.068 11.9134 201.348 11.817V10.4977C201.348 9.72536 195.212 9.72536 195.212 10.4977V11.817C194.493 11.9134 194.02 12.0517 194.02 12.2332V13.8903C193.188 13.9611 192.656 14.06 192.656 14.1853V33.5652H203.904V14.1853C203.904 14.0596 203.371 13.9611 202.54 13.8903H202.541Z" fill="white"/>
<path d="M17.2876 11.9351H6.81641V33.5441H17.2876V11.9351Z" fill="white"/>
<path d="M76.023 6.21777H68.1582V7.35811H76.023V6.21777Z" fill="white"/>
<path d="M81.3857 32.6754H62.793L66.4226 7.12988H77.7571L81.3857 32.6754Z" fill="white"/>
<path d="M73.2687 6.74042H70.9121L71.4909 3.99707H72.6899L73.2687 6.74042Z" fill="white"/>
<path d="M72.3212 3.98835L72.2255 2.16992H71.9531L71.8574 3.98835H72.3212Z" fill="white"/>
<path d="M72.7912 4.16841L72.7438 4.00916C72.7319 3.96977 72.6578 3.94043 72.569 3.94043H71.6089C71.521 3.94043 71.446 3.96977 71.4341 4.00916L71.3867 4.16841H72.7892H72.7912Z" fill="white"/>
<path d="M58.8732 19.3638H28.541V34.1131H58.8732V19.3638Z" fill="white"/>
<path d="M57.014 17.4121H48.9082V19.663H57.014V17.4121Z" fill="white"/>
<path d="M43.8119 17.4121H30.4004V19.663H43.8119V17.4121Z" fill="white"/>
<path d="M155.673 24.1274V22.1992H140.631V33.0373H151.129H155.673H166.171V24.1274H155.673Z" fill="white"/>
<path d="M152.959 17.0928H142.195V22.5225H152.959V17.0928Z" fill="white"/>
<path d="M94.9395 22.0637L109.9 22.9924V19.4629L94.9395 20.0396V22.0637Z" fill="white"/>
<path d="M108.257 18.1626V19.6717L96.5801 20.0544V18.7397L108.257 18.1626Z" fill="white"/>
<path d="M112.747 22.6867V32.249H92.0957V21.2949L112.747 22.6867Z" fill="white"/>
<path d="M177.74 32.4113V29.3377L174.983 28.8067L174.281 28.9572V27.6107L171.041 26.6929L168.135 27.6107V32.4113H177.74Z" fill="white"/>
<path d="M212 32H-4V35H212V32Z" fill="white"/>
<path d="M29.0658 26.7725H16.8652V32.6535H29.0658V26.7725Z" fill="white"/>
<path d="M129.211 24.9087H117.498V32.2809H129.211V24.9087Z" fill="white"/>
<path d="M127.16 22.8799H125.793V25.5306H127.16V22.8799Z" fill="white"/>
<path d="M137.702 28.4707H131.455V32.5296H137.702V28.4707Z" fill="white"/>
<path d="M141.802 29.9199H136.238V32.8192H141.802V29.9199Z" fill="white"/>
<path d="M192.753 26.6899H180.553V32.571H192.753V26.6899Z" fill="white"/>
<path d="M185.212 24.3394H182.32V27.2436H185.212V24.3394Z" fill="white"/>
<path d="M180.942 30.252H177.574V32.5506H180.942V30.252Z" fill="white"/>
<path d="M168.777 31.3389H165.324V32.488H168.777V31.3389Z" fill="white"/>
<path d="M90.3393 26.4512H84.4824V32.5393H90.3393V26.4512Z" fill="white"/>
<path d="M85.9466 29.5889H80.5293V32.3846H85.9466V29.5889Z" fill="white"/>
<path d="M63.6183 28.3154H57.6152V33.0679H63.6183V28.3154Z" fill="white"/>
<path d="M118.327 28.9678H112.08V32.4056H118.327V28.9678Z" fill="white"/>
</g>
<mask id="mask1_42078_1166723" style="mask-type:luminance" maskUnits="userSpaceOnUse" x="209" y="-44" width="210" height="90">
<path d="M418.999 -43.627H209.484V45.275H418.999V-43.627Z" fill="white"/>
</mask>
<g mask="url(#mask1_42078_1166723)">
<path d="M421 32H206V35H421V32Z" fill="white"/>
</g>
</g>
<defs>
<clipPath id="clip0_42078_1166723">
<rect width="210" height="35" fill="white"/>
</clipPath>
</defs>
</svg>
