<svg width="42" height="36" viewBox="0 0 42 36" fill="none" xmlns="http://www.w3.org/2000/svg">
<g clip-path="url(#clip0_47732_594763)">
<path d="M30.631 6.97327H9.41494L8.37073 11.9246H26.2698C27.228 11.9246 28.2845 12.0228 28.8988 12.7477C29.2673 13.1777 29.9307 16.0158 25.9136 16.0158H7.4985L4.80811 28.6705H25.2502C31.4786 28.6705 34.9921 26.6187 35.7046 22.5889L35.766 22.2694C35.9503 21.2497 37.2894 17.4779 32.6088 16.5441C32.6088 16.5441 36.798 15.6595 37.3999 12.5389L37.5842 11.1628C37.7685 10.1308 36.9822 6.97327 30.6187 6.97327H30.631ZM25.3976 24.0878H12.695L13.5304 19.8368H26.5401C30.115 19.8368 29.255 24.0878 25.3976 24.0878Z" fill="url(#paint0_linear_47732_594763)"/>
<path fill-rule="evenodd" clip-rule="evenodd" d="M7.25701 4.31262H30.6188C30.6229 4.31262 30.627 4.31262 30.6311 4.31262C34.2116 4.31465 36.7567 5.20449 38.3873 6.74994C39.9658 8.24608 40.44 10.1495 40.2158 11.5575L40.027 12.9678L40.0125 13.0428C39.6888 14.7207 38.7858 15.9462 37.8126 16.8175C38.2439 17.4893 38.4956 18.1981 38.625 18.8743C38.8178 19.8814 38.7409 20.8116 38.6388 21.4786C38.5865 21.8201 38.5228 22.121 38.4724 22.3473C38.4612 22.3977 38.4411 22.4861 38.4262 22.5518C38.4181 22.5875 38.4116 22.6165 38.4088 22.6289C38.4006 22.6653 38.3947 22.6924 38.3903 22.7134C38.3858 22.7348 38.3843 22.7432 38.3844 22.7426L38.3817 22.7572L38.321 23.0732C37.8262 25.8393 36.3092 28.0284 33.8848 29.4401C31.5711 30.7873 28.6045 31.3311 25.2503 31.3311H1.52246L5.34416 13.3552H5.34995L7.25701 4.31262ZM35.7047 22.5889L35.7661 22.2694C35.7827 22.178 35.8085 22.0644 35.8384 21.9328C36.0275 21.1005 36.381 19.545 35.5922 18.2843C35.1142 17.5205 34.2167 16.8649 32.6089 16.5441C32.6089 16.5441 34.4706 16.151 35.8901 14.9644C36.6 14.371 37.1994 13.5792 37.4 12.5389L37.5843 11.1628C37.7685 10.1314 36.9834 6.97732 30.6311 6.97326H9.41505L8.37083 11.9246H26.2699C27.2281 11.9246 28.2846 12.0228 28.8989 12.7477C29.2674 13.1777 29.9308 16.0158 25.9137 16.0158H7.4986L4.80821 28.6705H25.2503C31.4787 28.6705 34.9922 26.6187 35.7047 22.5889ZM13.5305 19.8368H26.5402C30.1151 19.8368 29.2552 24.0878 25.3977 24.0878H12.6951L13.5305 19.8368ZM26.7474 22.5128C26.7534 22.5141 26.7562 22.515 26.7561 22.5151C26.756 22.5152 26.753 22.5145 26.7474 22.5128ZM26.2157 21.2091C26.2194 21.2026 26.2217 21.1999 26.2219 21.2001C26.2221 21.2003 26.2202 21.2036 26.2157 21.2091Z" fill="url(#paint1_linear_47732_594763)"/>
</g>
<defs>
<linearGradient id="paint0_linear_47732_594763" x1="99.8809" y1="29.0391" x2="99.8809" y2="6.97327" gradientUnits="userSpaceOnUse">
<stop stop-color="white"/>
<stop offset="0.57" stop-color="#EBE9FF"/>
<stop offset="1" stop-color="white"/>
</linearGradient>
<linearGradient id="paint1_linear_47732_594763" x1="21.2079" y1="28.6705" x2="21.2079" y2="6.97326" gradientUnits="userSpaceOnUse">
<stop stop-color="#0079FF"/>
<stop offset="1" stop-color="#96CFFF"/>
</linearGradient>
<clipPath id="clip0_47732_594763">
<rect width="39.9095" height="28" fill="white" transform="translate(1 4)"/>
</clipPath>
</defs>
</svg>
