<svg width="185" height="31" viewBox="0 0 185 31" fill="none" xmlns="http://www.w3.org/2000/svg">
<path d="M168.182 2.48865L163.597 10.2807L161.863 2.48865H133.641L131.633 13.8858C131.234 16.2473 131.063 17.3197 127.891 17.3197C126.123 17.3197 125.781 16.9204 125.758 16.909C125.53 16.6238 125.758 15.3803 125.906 14.6273L126.009 14.0341L127.104 7.80501C127.595 5.03275 125.462 2.50006 122.644 2.50006H37.5106L36.9174 5.84275C36.7577 5.55754 36.5751 5.30655 36.404 5.1012C34.9439 3.35569 32.286 2.51146 28.2934 2.51146H6.2885L0.847168 28.135H24.4491C30.1072 28.135 33.21 26.4009 34.9325 24.3816C35.2633 25.0889 35.7082 25.7278 36.2786 26.2754C37.1569 27.1196 38.2748 27.7129 39.5068 27.9753C40.0088 28.0779 40.5221 28.135 41.0583 28.135H59.2987L62.7095 11.9805H68.1736L66.3371 19.9323C65.9492 22.1113 66.4625 24.1762 67.7858 25.7392C69.0748 27.2793 70.9799 28.135 73.1245 28.135H78.5886L81.8739 11.9805H87.6917L85.9806 20.149C85.8437 20.9362 85.8209 21.712 85.9236 22.465C86.1289 23.9709 86.7905 25.3057 87.8514 26.3324C88.7298 27.1767 89.8477 27.7699 91.0797 28.0323C91.5816 28.135 92.095 28.192 92.6311 28.192L111.727 28.1464L112.834 23.024C113.096 23.5374 113.415 24.0279 113.815 24.5071C116.073 27.1995 120.032 28.5115 125.929 28.5115H127.287C135.192 28.5115 139.675 26.0586 142.094 23.1152L141.021 28.1578H154.55L155.634 23.0354L156.718 28.1578H164.064L167.441 22.5562C167.635 23.7427 168.137 24.8379 168.912 25.762C170.201 27.3022 172.106 28.1578 174.251 28.1578H178.723L184.153 2.51146H168.194L168.182 2.48865Z" fill="url(#paint0_linear_47732_594761)"/>
<path d="M63.2913 9.7901H71.2422L69.0064 20.4114C68.7668 21.769 69.0634 23.0354 69.8505 23.9709C70.6148 24.8836 71.767 25.3855 73.0902 25.3855H76.079L79.3643 9.7901H87.3267L88.2963 5.2381H64.2837L63.3027 9.7901H63.2913ZM134.086 14.3421C133.675 16.7607 133.127 20.0692 127.64 20.0692C125.576 20.0692 124.195 19.6128 123.408 18.6545C122.347 17.3768 122.678 15.6427 122.963 14.1139L123.066 13.5549L124.846 5.2381H116.689L114.682 14.8212C114.18 17.6392 113.849 20.5597 115.663 22.7159C117.34 24.7238 120.716 25.7392 125.667 25.7392H127.013C140.223 25.7392 141.5 18.4263 142.196 14.5018L144.158 5.2381H136.002L134.074 14.3421H134.086ZM169.814 5.24951L162.49 17.6962L159.718 5.24951H147.9L143.645 25.3969H151.904L153.934 15.7682C154.151 14.7414 155.041 13.9884 156.09 13.9542L158.92 25.3969H162.558L169.597 13.7032C170.578 14.0683 171.148 15.0836 170.966 16.1104L170.201 20.4228C169.962 21.7804 170.258 23.0468 171.046 23.9823C171.81 24.895 172.962 25.3969 174.285 25.3969H176.647L180.913 5.24951H169.802H169.814ZM88.4902 20.5825C88.399 21.0845 88.3876 21.5865 88.456 22.0542C88.5815 22.9441 88.9579 23.7199 89.5739 24.3131C90.0873 24.8037 90.7375 25.146 91.4676 25.3057C91.7756 25.3741 92.1064 25.4083 92.4372 25.4083H108.841L109.833 20.7423H96.8062L97.5363 17.2513H110.564L111.51 12.7563H90.1329L88.4788 20.594L88.4902 20.5825ZM90.7717 9.7901H112.161L113.107 5.2381H91.7528L90.7831 9.7901H90.7717ZM36.6208 20.5825C36.5295 21.0845 36.5181 21.5865 36.5866 22.0542C36.712 22.9441 37.0885 23.7199 37.7045 24.3131C38.2178 24.8037 38.868 25.146 39.5981 25.2943C39.9061 25.3627 40.2369 25.3969 40.5677 25.3969H56.9944L57.964 20.7309H45.0166L45.6897 17.2399H58.7055L59.6637 12.7449H38.2977L36.6322 20.5825H36.6208ZM38.8909 9.7901H60.2683L61.2265 5.2381H39.8719L38.8909 9.7901ZM28.3618 5.24951H8.66124L7.69161 9.84714H24.3122C25.202 9.84714 26.183 9.93841 26.7534 10.6115C27.0956 11.0108 27.7116 13.6462 23.9814 13.6462H6.88168L4.38346 25.3969H23.3654C29.1489 25.3969 32.4114 23.4917 33.0731 19.7497L33.1301 19.4531C33.3012 18.5062 34.5446 15.0038 30.1984 14.1367C30.1984 14.1367 34.0883 13.3153 34.6473 10.4176L34.8184 9.13981C34.9895 8.18149 34.2594 5.24951 28.3504 5.24951H28.3618ZM23.5023 21.1416H11.707L12.4827 17.1942H24.5632C27.8827 17.1942 27.0842 21.1416 23.5023 21.1416Z" fill="url(#paint1_linear_47732_594761)"/>
<defs>
<linearGradient id="paint0_linear_47732_594761" x1="92.4942" y1="28.4886" x2="92.4942" y2="2.48865" gradientUnits="userSpaceOnUse">
<stop stop-color="#0079FF"/>
<stop offset="1" stop-color="#96CFFF"/>
</linearGradient>
<linearGradient id="paint1_linear_47732_594761" x1="92.6652" y1="25.7393" x2="92.6652" y2="5.24957" gradientUnits="userSpaceOnUse">
<stop stop-color="white"/>
<stop offset="0.57" stop-color="#EBE9FF"/>
<stop offset="1" stop-color="white"/>
</linearGradient>
</defs>
</svg>
