<svg width="16" height="16" viewBox="0 0 16 16" fill="none" xmlns="http://www.w3.org/2000/svg">
<path d="M9.55504 14.5L4.90824 14.4549C4.39841 14.4549 4.0423 14.0307 4.2468 13.5486C5.02239 11.72 6.44154 8.23078 7.7088 6.39911C6.41478 6.20825 6.42283 6.04355 6.03473 6.36991C5.56909 6.76148 5.09675 7.46467 4.49619 7.46467H3.83226C3.32244 7.46467 3 6.92546 3 6.39911V2.42857C3 1.90222 3.32244 1.58804 3.83226 1.58804C4.88507 1.58804 5.40595 1.4054 6.43588 1.66223C8.94025 2.28674 9.70929 1.95545 10.633 1.58804C11.1088 1.39882 11.6829 1.51238 11.9657 1.95033L12.7725 3.32889C13.0612 3.77597 12.9287 4.37813 12.553 4.75C10.4789 6.80303 10.6359 10.8242 10.5025 13.5486C10.4768 14.0743 10.0649 14.5 9.55504 14.5Z" fill="#415266"/>
</svg>
