<svg width="16" height="16" viewBox="0 0 16 16" fill="none" xmlns="http://www.w3.org/2000/svg">
<path fill-rule="evenodd" clip-rule="evenodd" d="M8 14.5C11.5899 14.5 14.5 11.5899 14.5 8C14.5 4.41015 11.5899 1.5 8 1.5C4.41015 1.5 1.5 4.41015 1.5 8C1.5 11.5899 4.41015 14.5 8 14.5ZM13.4654 9.08733L13.0099 8.99723L12.5545 8.90712C12.6051 8.65106 12.6348 8.3869 12.6414 8.11634C12.6424 8.07769 12.6429 8.03891 12.6429 8C12.6429 7.95729 12.6423 7.91473 12.6411 7.87233C12.634 7.60572 12.6044 7.34536 12.5545 7.09288L13.0099 7.00277L13.4654 6.91267C13.535 7.26434 13.5714 7.62791 13.5714 8C13.5714 8.37209 13.535 8.73566 13.4654 9.08733ZM11.4402 4.88202C11.5933 5.05086 11.7342 5.23099 11.8614 5.42101L12.2472 5.16272L12.633 4.90443C12.2262 4.29685 11.7031 3.77375 11.0956 3.36699L10.8373 3.7528L10.579 4.13861C10.7715 4.26748 10.9539 4.41039 11.1246 4.56585C11.2348 4.66615 11.3401 4.77167 11.4402 4.88202ZM8.12767 12.6411C8.08527 12.6423 8.04271 12.6429 8 12.6429C7.96109 12.6429 7.92231 12.6424 7.88366 12.6414C7.6131 12.6348 7.34894 12.6051 7.09288 12.5545L7.00277 13.0099L6.91267 13.4654C7.26434 13.535 7.62791 13.5714 8 13.5714C8.37209 13.5714 8.73566 13.535 9.08733 13.4654L8.99723 13.0099L8.90712 12.5545C8.65464 12.6044 8.39428 12.634 8.12767 12.6411ZM4.87674 11.4354C4.78015 11.3475 4.68727 11.2556 4.59838 11.16C4.43028 10.9791 4.27642 10.7848 4.13861 10.579L3.7528 10.8373L3.36699 11.0956C3.77375 11.7031 4.29686 12.2262 4.90443 12.633L5.16272 12.2472L5.42101 11.8614C5.22901 11.7329 5.0471 11.5904 4.87674 11.4354ZM3.35857 8.11634C3.35762 8.07769 3.35714 8.03891 3.35714 8C3.35714 7.97054 3.35742 7.94116 3.35796 7.91185C3.36316 7.63144 3.39312 7.35782 3.44554 7.09288L2.99008 7.00277L2.53462 6.91267C2.46505 7.26434 2.42857 7.62791 2.42857 8C2.42857 8.37209 2.46505 8.73566 2.53462 9.08733L2.99008 8.99723L3.44554 8.90712C3.39488 8.65106 3.3652 8.3869 3.35857 8.11634ZM4.60567 4.83222C4.66805 4.76541 4.73237 4.70045 4.79855 4.63742C4.99108 4.45405 5.19932 4.28702 5.42101 4.13861L5.16272 3.7528L4.90443 3.36699C4.29685 3.77375 3.77375 4.29686 3.36699 4.90443L3.7528 5.16272L4.13861 5.42101C4.27841 5.21218 4.43473 5.01529 4.60567 4.83222ZM7.91185 3.35796C7.94116 3.35742 7.97054 3.35714 8 3.35714C8.03891 3.35714 8.07769 3.35762 8.11634 3.35857C8.3869 3.3652 8.65106 3.39488 8.90712 3.44554L8.99723 2.99008L9.08733 2.53462C8.73566 2.46505 8.37209 2.42857 8 2.42857C7.62791 2.42857 7.26434 2.46505 6.91267 2.53462L7.00277 2.99008L7.09288 3.44554C7.35782 3.39312 7.63144 3.36316 7.91185 3.35796ZM11.0956 12.633L10.8373 12.2472L10.579 11.8614C11.0857 11.5222 11.5222 11.0857 11.8614 10.579L12.2472 10.8373L12.633 11.0956C12.2262 11.7031 11.7031 12.2262 11.0956 12.633ZM9.35566 7.35615C9.79244 7.64734 10.0108 7.79293 10.0108 8C10.0108 8.20706 9.79244 8.35266 9.35566 8.64385L8.04232 9.5194C7.51275 9.87245 7.24797 10.049 7.04363 9.93961C6.83929 9.83025 6.83929 9.51202 6.83929 8.87555V7.12445C6.83929 6.48798 6.83929 6.16975 7.04363 6.06039C7.24797 5.95103 7.51275 6.12755 8.04233 6.4806L9.35566 7.35615Z" fill="#415266"/>
</svg>
