<svg width="16" height="16" viewBox="0 0 16 16" fill="none" xmlns="http://www.w3.org/2000/svg">
<path fill-rule="evenodd" clip-rule="evenodd" d="M11.1236 3.29253C10.8916 1.18887 8.80416 1.24669 7.93414 2.12379C7.64413 1.53887 5.03349 0.662463 4.45348 3.29253C4.36017 3.71562 4.3982 4.13788 4.53031 4.54888L4.51294 4.54324C4.7118 5.09839 5.05233 5.65349 5.48142 6.18669C6.26199 7.15663 7.27747 7.97903 8.03381 8.47799C8.50193 8.12201 9.10538 7.57655 9.66092 6.91008C10.1728 6.31507 10.6521 5.60196 10.9201 4.84026L10.9223 4.83441C11.0974 4.3347 11.1812 3.81428 11.1236 3.29253ZM11.7096 4.50363C11.4915 5.35774 11.055 6.1532 10.5588 6.8373C9.87813 7.77593 9.05731 8.54408 8.43555 9.02109C9.28999 10.1096 10.6503 11.4318 12.8087 11.1902C14.8967 10.9564 14.8393 8.85336 13.9687 7.97683C14.5493 7.68466 15.4192 5.05449 12.8087 4.47014C12.4393 4.38746 12.0706 4.40714 11.7096 4.50363ZM6.01408 7.73825C5.65683 7.40304 5.3059 7.03402 4.98918 6.64047C4.45936 5.9821 4.00038 5.223 3.79095 4.41859C3.62098 4.41553 3.45017 4.43187 3.27922 4.47014C0.668681 5.05449 1.53858 7.68466 2.11916 7.97683C1.24857 8.85336 1.19118 10.9564 3.27922 11.1902C4.62694 11.341 5.96648 10.5263 6.95483 9.64145C7.05353 9.70613 7.16085 9.77628 7.27784 9.85269C8.24137 10.641 8.35659 11.7166 8.19755 12.678C8.11772 13.1605 7.97025 13.5944 7.841 13.9096C7.77673 14.0664 7.71786 14.1917 7.67579 14.2764C7.63829 14.352 8.42262 14.8604 8.42897 14.8489C8.44226 14.8248 8.47042 14.7725 8.50846 14.6959C8.55912 14.5938 8.62753 14.448 8.70144 14.2677C8.84857 13.9088 9.02112 13.4047 9.11584 12.8321C9.30496 11.6889 9.18979 10.1925 7.84197 9.10615L7.82385 9.09155L7.80438 9.07883C7.28886 8.74216 6.97626 8.53658 6.76744 8.3921C6.55332 8.22005 6.33429 8.03312 6.1166 7.83338C6.08716 7.80337 6.0547 7.77042 6.01843 7.73387L6.01408 7.73825Z" fill="#415266"/>
</svg>
