<svg width="108" height="36" viewBox="0 0 108 36" fill="none" xmlns="http://www.w3.org/2000/svg">
<path d="M24.0753 11.4224H16.7539V24.5791H24.0753V11.4224Z" fill="#FF5F00"/>
<path d="M17.2173 17.9999C17.2161 16.7328 17.5032 15.4821 18.0569 14.3423C18.6106 13.2026 19.4163 12.2038 20.4131 11.4215C19.1787 10.4513 17.6963 9.84791 16.1353 9.68036C14.5742 9.51281 12.9975 9.78783 11.5854 10.474C10.1732 11.1602 8.98264 12.2298 8.14968 13.5607C7.31672 14.8915 6.875 16.4299 6.875 17.9999C6.875 19.5699 7.31672 21.1083 8.14968 22.4391C8.98264 23.77 10.1732 24.8396 11.5854 25.5258C12.9975 26.212 14.5742 26.487 16.1353 26.3194C17.6963 26.1519 19.1787 25.5485 20.4131 24.5783C19.4163 23.796 18.6106 22.7972 18.0569 21.6575C17.5033 20.5177 17.2161 19.267 17.2173 17.9999Z" fill="#EB001B"/>
<path d="M33.9518 18.0001C33.9518 19.5701 33.5101 21.1085 32.6772 22.4393C31.8443 23.7702 30.6537 24.8398 29.2416 25.526C27.8295 26.2122 26.2529 26.4872 24.6918 26.3197C23.1308 26.1521 21.6484 25.5488 20.4141 24.5785C21.4099 23.7954 22.215 22.7965 22.7686 21.6569C23.3222 20.5174 23.6099 19.267 23.6099 18.0001C23.6099 16.7332 23.3222 15.4829 22.7686 14.3433C22.215 13.2038 21.4099 12.2048 20.4141 11.4217C21.6484 10.4515 23.1308 9.84815 24.6918 9.6806C26.2529 9.51305 27.8295 9.78809 29.2416 10.4743C30.6537 11.1605 31.8443 12.2301 32.6772 13.561C33.5101 14.8918 33.9518 16.4301 33.9518 18.0001Z" fill="#F79E1B"/>
<path d="M48.5742 20.9847V17.47C48.5742 16.1255 47.7552 15.2451 46.3493 15.2451C45.6464 15.2451 44.882 15.4771 44.3565 16.2415C43.947 15.6 43.3601 15.2451 42.4797 15.2451C41.8928 15.2451 41.3058 15.4225 40.8417 16.0641V15.3611H39.6133V20.9847H40.8417V17.8794C40.8417 16.883 41.3672 16.4121 42.1862 16.4121C43.0052 16.4121 43.4147 16.9376 43.4147 17.8794V20.9847H44.6431V17.8794C44.6431 16.883 45.2301 16.4121 45.9876 16.4121C46.8066 16.4121 47.2161 16.9376 47.2161 17.8794V20.9847H48.5742ZM66.7964 15.3611H64.8035V13.6617H63.5751V15.3611H62.4626V16.4735H63.5751V19.0533C63.5751 20.3432 64.1006 21.1007 65.5065 21.1007C66.032 21.1007 66.6189 20.9233 67.0284 20.6913L66.6735 19.6334C66.3186 19.8655 65.9091 19.9269 65.6157 19.9269C65.0287 19.9269 64.7967 19.572 64.7967 18.9919V16.4735H66.7895V15.3611H66.7964ZM77.2246 15.2383C76.5217 15.2383 76.0508 15.5931 75.7573 16.0572V15.3543H74.5288V20.9779H75.7573V17.8112C75.7573 16.8762 76.1668 16.3439 76.9311 16.3439C77.1632 16.3439 77.4567 16.4053 77.6955 16.4599L78.0504 15.286C77.8047 15.2383 77.4567 15.2383 77.2246 15.2383ZM61.4662 15.8252C60.8793 15.4157 60.0603 15.2383 59.1799 15.2383C57.774 15.2383 56.839 15.9412 56.839 17.0537C56.839 17.9886 57.542 18.521 58.7704 18.6916L59.3574 18.753C59.9989 18.869 60.3538 19.0465 60.3538 19.34C60.3538 19.7494 59.8829 20.0429 59.0639 20.0429C58.2449 20.0429 57.5966 19.7494 57.1871 19.456L56.6001 20.391C57.2417 20.8619 58.1221 21.0939 59.0025 21.0939C60.6404 21.0939 61.5822 20.3295 61.5822 19.2785C61.5822 18.2821 60.8179 17.7566 59.6508 17.5792L59.0639 17.5177C58.5384 17.4563 58.1289 17.3403 58.1289 16.9922C58.1289 16.5827 58.5384 16.3507 59.1867 16.3507C59.8897 16.3507 60.5926 16.6442 60.9475 16.8216L61.4662 15.8252ZM94.1501 15.2383C93.4471 15.2383 92.9762 15.5931 92.6827 16.0572V15.3543H91.4543V20.9779H92.6827V17.8112C92.6827 16.8762 93.0922 16.3439 93.8566 16.3439C94.0886 16.3439 94.3821 16.4053 94.621 16.4599L94.9759 15.2997C94.737 15.2383 94.3889 15.2383 94.1501 15.2383ZM78.4531 18.1729C78.4531 19.8723 79.6269 21.1007 81.4423 21.1007C82.2613 21.1007 82.8482 20.9233 83.4352 20.4592L82.8482 19.4628C82.3773 19.8177 81.9132 19.9883 81.3809 19.9883C80.3845 19.9883 79.6815 19.2854 79.6815 18.1729C79.6815 17.1151 80.3845 16.4121 81.3809 16.3575C81.9064 16.3575 82.3773 16.535 82.8482 16.883L83.4352 15.8866C82.8482 15.4157 82.2613 15.2451 81.4423 15.2451C79.6269 15.2383 78.4531 16.4735 78.4531 18.1729ZM89.8163 18.1729V15.3611H88.5879V16.0641C88.1784 15.5386 87.5914 15.2451 86.8271 15.2451C85.2437 15.2451 84.0153 16.4735 84.0153 18.1729C84.0153 19.8723 85.2437 21.1007 86.8271 21.1007C87.646 21.1007 88.233 20.8073 88.5879 20.2818V20.9847H89.8163V18.1729ZM85.3051 18.1729C85.3051 17.1765 85.9467 16.3575 87.0045 16.3575C88.0009 16.3575 88.7039 17.1219 88.7039 18.1729C88.7039 19.1693 88.0009 19.9883 87.0045 19.9883C85.9535 19.9269 85.3051 19.1625 85.3051 18.1729ZM70.6046 15.2383C68.9666 15.2383 67.7928 16.4121 67.7928 18.1661C67.7928 19.9269 68.9666 21.0939 70.666 21.0939C71.485 21.0939 72.304 20.8619 72.9523 20.3295L72.3654 19.4491C71.8945 19.804 71.3075 20.0361 70.7274 20.0361C69.9631 20.0361 69.2055 19.6812 69.0281 18.6916H73.1843C73.1843 18.5142 73.1843 18.3981 73.1843 18.2207C73.2389 16.4121 72.1811 15.2383 70.6046 15.2383ZM70.6046 16.2961C71.369 16.2961 71.8945 16.767 72.0105 17.6406H69.0827C69.1987 16.883 69.7242 16.2961 70.6046 16.2961ZM101.125 18.1729V13.1362H99.8965V16.0641C99.487 15.5386 98.9001 15.2451 98.1357 15.2451C96.5524 15.2451 95.3239 16.4735 95.3239 18.1729C95.3239 19.8723 96.5524 21.1007 98.1357 21.1007C98.9547 21.1007 99.5416 20.8073 99.8965 20.2818V20.9847H101.125V18.1729ZM96.6138 18.1729C96.6138 17.1765 97.2553 16.3575 98.3132 16.3575C99.3096 16.3575 100.013 17.1219 100.013 18.1729C100.013 19.1693 99.3096 19.9883 98.3132 19.9883C97.2553 19.9269 96.6138 19.1625 96.6138 18.1729ZM55.4877 18.1729V15.3611H54.2592V16.0641C53.8498 15.5386 53.2628 15.2451 52.4985 15.2451C50.9151 15.2451 49.6866 16.4735 49.6866 18.1729C49.6866 19.8723 50.9151 21.1007 52.4985 21.1007C53.3174 21.1007 53.9044 20.8073 54.2592 20.2818V20.9847H55.4877V18.1729ZM50.9219 18.1729C50.9219 17.1765 51.5635 16.3575 52.6213 16.3575C53.6177 16.3575 54.3207 17.1219 54.3207 18.1729C54.3207 19.1693 53.6177 19.9883 52.6213 19.9883C51.5635 19.9269 50.9219 19.1625 50.9219 18.1729Z" fill="black"/>
</svg>
